# xmcd
#
# Track frame offsets:
#       180
#       17198
#       30969
#       46976
#       59881
#       75736
#       89801
#       106420
#       120287
#       134518
#       149445
#       163298
#       177943
#       190424
#       206322
#       224692
#       238873
#       252965
#       267253
#
# Disc length: 3737 seconds
#
# Revision: 2
# Processed by: cddbd v1.5.2PL0 Copyright (c) Steve Scherf et al.
# Submitted via: FreeDbEdit v0.1
#
DISCID=220e9713
DTITLE=Tennessee - Country Feeling [CD2]
DYEAR=2006
DGENRE=Country
TTITLE0=Traumfrau
TTITLE1=Ich Fahr'n Truck
TTITLE2=Wo Bist Du?
TTITLE3=Das Fussballlied
TTITLE4=Wirklich Schade
TTITLE5=Tausche UFO Gegen 30 - Tonner Diesel
TTITLE6=Komm' Mit Mir
TTITLE7=Ein Bier - Ein Bier
TTITLE8=James Dean (Der Junge Wilde)
TTITLE9=Ohne Dich
TTITLE10=Ich Will Nach Oben
TTITLE11=Gelabert Wird Von Früh Bis Spät (Bla Bla Diddely)
TTITLE12=Freitagabend
TTITLE13=Ein Kerl Wie' n  Baum
TTITLE14=Easy Rider - Tagelang
TTITLE15=Chili Lady
TTITLE16=Mein Pferd Gerd (Lagerfeuer Mix)
TTITLE17=Guten Appetit (Lieber Rotwein Als Tot Sein)
TTITLE18=Tennessee
EXTD=YEAR: 2006
EXTT0=
EXTT1=
EXTT2=
EXTT3=
EXTT4=
EXTT5=
EXTT6=
EXTT7=
EXTT8=
EXTT9=
EXTT10=
EXTT11=
EXTT12=
EXTT13=
EXTT14=
EXTT15=
EXTT16=
EXTT17=
EXTT18=
PLAYORDER=
